:version 1.10
:name ASF
:units
  mass 1
  length 1
  angle deg
:documentation
  ASF file generated by Kaydara
:root
  axis xyz
  order  tx ty tz rx ry rz
  position 0 0 0
  orientation 0 0 0
:bonedata
  begin
    id 1
    name SpineDummy
    direction 0.999998 -0.00179978 1.38929e-006
    length 3.60008
    axis 0 0 0 xyz
  end
  begin
    id 2
    name Spine
    direction 0.964365 0.262802 0.0305839
    length 8.13928
    axis 1.33928 -1.75354 15.2838 xyz
    dof rx ry rz
  end
  begin
    id 3
    name Spine1
    direction 0.811168 0.572065 0.12144
    length 7.14954
    axis 2.2224 -6.9761 35.2157 xyz
    dof rx ry rz
  end
  begin
    id 4
    name Neck
    direction 0 0 0
    length 0
    axis 2.2224 -6.9761 35.2157 xyz
    dof rx ry rz
  end
  begin
    id 5
    name HeadDummy
    direction 0.810939 0.572387 0.121455
    length 3.55534
    axis 2.2224 -6.9761 35.2157 xyz
  end
  begin
    id 6
    name Head
    direction 0.998226 -0.000232542 0.0595419
    length 7.35666
    axis -3.03688 -3.41352 -0.0133467 xyz
    dof rx ry rz
  end
  begin
    id 7
    name R_ClavicleDummy
    direction 0.531669 -0.194489 -0.824319
    length 2.49392
    axis 2.2224 -6.9761 35.2157 xyz
  end
  begin
    id 8
    name R_Clavicle
    direction -0.155119 0.0480802 -0.986725
    length 4.485
    axis -54.2764 80.6538 162.779 xyz
    dof rx ry rz
  end
  begin
    id 9
    name R_UpperArm
    direction -0.955567 0.200068 -0.216484
    length 10.1122
    axis -72.9943 12.5026 168.175 xyz
    dof rx ry rz
  end
  begin
    id 10
    name R_Forearm
    direction -0.61433 0.385743 0.688332
    length 9.39148
    axis -117.015 -43.4982 147.875 xyz
    dof rx ry rz
  end
  begin
    id 11
    name R_Hand
    direction -0.699429 0.0170333 0.714499
    length 3.66324
    axis -45.0303 -36.7097 175.478 xyz
    dof rx ry rz
  end
  begin
    id 12
    name L_ClavicleDummy
    direction 0.40287 -0.36502 0.839319
    length 2.49392
    axis 2.2224 -6.9761 35.2157 xyz
  end
  begin
    id 13
    name L_Clavicle
    direction -0.231271 -0.0726419 0.970174
    length 4.485
    axis 18.4357 -75.9711 -162.563 xyz
    dof rx ry rz
  end
  begin
    id 14
    name L_UpperArm
    direction -0.917494 0.144359 0.370629
    length 10.1122
    axis 56.0417 -21.7544 171.058 xyz
    dof rx ry rz
  end
  begin
    id 15
    name L_Forearm
    direction -0.496786 0.615074 -0.612281
    length 9.39148
    axis 89.8094 37.7546 128.927 xyz
    dof rx ry rz
  end
  begin
    id 16
    name L_Hand
    direction -0.409932 0.64962 -0.640274
    length 3.66324
    axis -0.424369 32.133 128.52 xyz
    dof rx ry rz
  end
  begin
    id 17
    name L_ThighDummy
    direction -1.84081e-006 1.87549e-006 1
    length 3.13049
    axis 0 0 0 xyz
  end
  begin
    id 18
    name L_Thigh
    direction -0.947739 0.307978 0.083308
    length 17.9961
    axis 173.219 -4.77873 161.998 xyz
    dof rx ry rz
  end
  begin
    id 19
    name L_Calf
    direction -0.728814 -0.684427 0.0197583
    length 13.3367
    axis 167.331 -1.13214 -136.799 xyz
    dof rx ry rz
  end
  begin
    id 20
    name L_Foot
    direction -0.9028 0.418719 0.0981191
    length 5.8674
    axis 163.436 11.5135 -155.37 xyz
    dof rx ry rz
  end
  begin
    id 21
    name L_Toe0
    direction -0.35341 0.886259 0.299411
    length 4.75286
    axis 169.316 -17.4222 111.74 xyz
    dof rx ry rz
  end
  begin
    id 22
    name R_ThighDummy
    direction 9.32778e-007 -8.82053e-007 -1
    length 3.13049
    axis 0 0 0 xyz
  end
  begin
    id 23
    name R_Thigh
    direction -0.925064 0.37528 -0.0585023
    length 17.9961
    axis -178.698 3.35385 157.919 xyz
    dof rx ry rz
  end
  begin
    id 24
    name R_Calf
    direction -0.68969 -0.718776 -0.0876886
    length 13.3367
    axis -160.504 5.03065 -133.817 xyz
    dof rx ry rz
  end
  begin
    id 25
    name R_Foot
    direction -0.857405 0.418858 -0.299022
    length 5.8674
    axis -161.328 4.38911 -154.413 xyz
    dof rx ry rz
  end
  begin
    id 26
    name R_Toe0
    direction -0.100745 0.952789 -0.286433
    length 4.75286
    axis 171.683 16.6445 96.0359 xyz
    dof rx ry rz
  end
:hierarchy
  begin
    root SpineDummy L_ThighDummy R_ThighDummy
    SpineDummy Spine
    Spine Spine1
    Spine1 Neck
    Neck HeadDummy R_ClavicleDummy L_ClavicleDummy
    HeadDummy Head
    R_ClavicleDummy R_Clavicle
    R_Clavicle R_UpperArm
    R_UpperArm R_Forearm
    R_Forearm R_Hand
    L_ClavicleDummy L_Clavicle
    L_Clavicle L_UpperArm
    L_UpperArm L_Forearm
    L_Forearm L_Hand
    L_ThighDummy L_Thigh
    L_Thigh L_Calf
    L_Calf L_Foot
    L_Foot L_Toe0
    R_ThighDummy R_Thigh
    R_Thigh R_Calf
    R_Calf R_Foot
    R_Foot R_Toe0
  end

:SAMPLES-PER-SECOND 30
:FULLY-SPECIFIED
:DEGREES
1
root  4.39018 33.3819 3.45547 -85.1271 3.02119 87.2511
Spine  0.612403 1.33162 -29.5434
Spine1  1.35191 -1.43711 6.93907
Neck  3.97569e-016 0 -2.38542e-015
Head  4.06378 -3.33115 25.4227
R_Clavicle  0.425746 -22.787 1.58744
R_UpperArm  30.7097 -1.52255 25.2062
R_Forearm  5.14828 -41.2841 22.8297
R_Hand  -1.10671 9.33852 -19.836
L_Clavicle  -0.594021 20.3716 -0.306778
L_UpperArm  -15.7639 7.56717 19.9403
L_Forearm  13.8407 42.7921 42.4924
L_Hand  0.0508715 1.158 0.923411
L_Thigh  -7.40736 0.480212 -9.94497
L_Calf  -8.40921 -9.50082 37.8076
L_Foot  2.83712 10.8403 0.633419
L_Toe0  0.504986 0.0344452 -6.136
R_Thigh  7.83937 -4.18008 -17.3331
R_Calf  5.30843 14.4531 41.5233
R_Foot  0.335284 1.65184 1.43672
R_Toe0  -1.78853 -0.272788 -17.3235
2
root  4.37104 33.3876 3.48526 -84.8849 3.27157 87.284
Spine  0.687861 1.2009 -29.2529
Spine1  1.40677 -1.40277 6.72782
Neck  3.97569e-016 0 -2.38542e-015
Head  3.65765 -3.28058 25.1872
R_Clavicle  0.425366 -22.7072 1.57572
R_UpperArm  29.3418 -1.33555 24.7094
R_Forearm  6.18684 -40.773 22.3567
R_Hand  -1.14984 9.45645 -20.1481
L_Clavicle  -0.594967 20.3591 -0.340469
L_UpperArm  -15.484 7.57791 19.9021
L_Forearm  13.5124 42.6679 42.3226
L_Hand  0.0329467 0.972011 0.626397
L_Thigh  -7.31134 0.39278 -9.62616
L_Calf  -8.31421 -9.5161 37.829
L_Foot  2.8521 10.9656 0.580091
L_Toe0  0.504986 0.0344452 -6.136
R_Thigh  7.86288 -4.21861 -17.1173
R_Calf  5.4998 14.557 41.591
R_Foot  0.346202 1.65892 1.35517
R_Toe0  -1.78853 -0.272788 -17.3235
3
root  4.31991 33.3934 3.54058 -84.3497 3.76748 87.3357
Spine  0.783974 1.03473 -28.6589
Spine1  1.472 -1.51271 6.29449
Neck  3.97569e-016 0 -2.38542e-015
Head  2.9824 -3.15142 24.8192
R_Clavicle  0.425435 -22.7379 1.5939
R_UpperArm  26.2177 -0.839938 23.8979
R_Forearm  8.79103 -39.554 21.4591
R_Hand  -1.19818 9.47431 -20.489
L_Clavicle  -0.593279 20.1851 -0.445523
L_UpperArm  -14.9984 7.74479 19.8472
L_Forearm  12.8801 42.3563 41.9833
L_Hand  0.0246103 0.832407 0.487803
L_Thigh  -7.2225 0.152017 -8.97788
L_Calf  -7.95493 -9.42201 37.8179
L_Foot  2.86869 11.1318 0.498918
L_Toe0  0.504986 0.0344452 -6.136
R_Thigh  7.96777 -4.36458 -16.6783
R_Calf  5.84081 14.7771 41.6345
R_Foot  0.368349 1.69833 1.24838
R_Toe0  -1.78853 -0.272788 -17.3235
4
root  4.24751 33.3923 3.59713 -83.6304 4.2901 87.4482
Spine  0.836923 0.961742 -27.8796
Spine1  1.5095 -1.68281 5.77876
Neck  3.97569e-016 0 -2.38542e-015
Head  2.11563 -2.94279 24.4941
R_Clavicle  0.425311 -22.6998 1.58014
R_UpperArm  22.5022 -0.393973 23.151
R_Forearm  11.9343 -37.7382 20.6609
R_Hand  -1.19204 9.36302 -20.4424
L_Clavicle  -0.593127 19.9926 -0.619623
L_UpperArm  -14.7364 8.02217 19.8552
L_Forearm  12.323 41.9769 41.6898
L_Hand  0.0335541 0.958641 0.636259
L_Thigh  -7.42865 -0.142715 -8.18602
L_Calf  -7.18676 -9.05407 37.591
L_Foot  2.9078 11.259 0.525166
L_Toe0  0.504986 0.0344452 -6.136
R_Thigh  8.03119 -4.4811 -16.2157
R_Calf  6.38044 15.011 41.6165
R_Foot  0.411703 1.81467 1.16513
R_Toe0  -1.78853 -0.272788 -17.3235
5
root  4.16873 33.3836 3.64305 -82.8693 4.70949 87.642
Spine  0.900176 1.04889 -26.9249
Spine1  1.56847 -1.85512 5.27371
Neck  3.97569e-016 0 -2.38542e-015
Head  1.23056 -2.71855 24.1687
R_Clavicle  0.423879 -22.4008 1.4743
R_UpperArm  19.0431 -0.233966 22.5722
R_Forearm  14.7153 -35.5113 20.2105
R_Hand  -1.13387 9.30333 -20.026
L_Clavicle  -0.594981 19.8887 -0.774929
L_UpperArm  -15.0945 8.29699 19.8328
L_Forearm  12.2076 41.7419 41.6683
L_Hand  0.0373084 1.21866 0.688726
L_Thigh  -8.00312 -0.380958 -7.38455
L_Calf  -6.07701 -8.46395 37.0954
L_Foot  3.00652 11.407 0.731665
L_Toe0  0.504986 0.0344452 -6.136
R_Thigh  7.99742 -4.47643 -15.8646
R_Calf  7.07724 15.1673 41.5923
R_Foot  0.482627 2.02668 1.09253
R_Toe0  -1.78853 -0.272788 -17.3235
6
root  4.08058 33.37 3.67846 -82.1797 5.09823 87.8154
Spine  1.04764 1.29185 -25.8411
Spine1  1.70186 -2.2384 4.78321
Neck  3.97569e-016 0 -2.38542e-015
Head  0.62347 -2.59556 23.8037
R_Clavicle  0.421812 -22.1002 1.35161
R_UpperArm  15.2745 -0.117921 22.1867
R_Forearm  17.6102 -32.8609 20.0483
R_Hand  -1.05198 9.31414 -19.4445
L_Clavicle  -0.590713 19.704 -0.849755
L_UpperArm  -16.058 8.63446 19.6932
L_Forearm  12.5191 41.7183 41.9556
L_Hand  0.0219949 1.47566 0.430145
L_Thigh  -8.53942 -0.644588 -6.63536
L_Calf  -5.03791 -7.90221 36.5731
L_Foot  3.1245 11.5574 0.997884
L_Toe0  0.504986 0.0344452 -6.136
R_Thigh  8.08274 -4.54051 -15.5408
R_Calf  7.58423 15.2607 41.5193
R_Foot  0.561335 2.27819 1.06072
R_Toe0  -1.78853 -0.272788 -17.3235
7
root  3.97014 33.3515 3.70555 -81.5183 5.59031 87.9139
Spine  1.22864 1.61681 -24.767
Spine1  1.86139 -2.90826 4.28229
Neck  3.97569e-016 0 -2.38542e-015
Head  0.335952 -2.63673 23.4924
R_Clavicle  0.421209 -22.0318 1.30031
R_UpperArm  10.6604 0.143126 21.9698
R_Forearm  21.1627 -29.6907 20.1375
R_Hand  -0.941859 9.16688 -18.6423
L_Clavicle  -0.579378 19.3595 -0.902377
L_UpperArm  -17.0365 9.12351 19.6639
L_Forearm  12.709 41.6772 42.2658
L_Hand  0.00556169 1.7412 0.17381
L_Thigh  -8.77359 -1.0579 -5.87518
L_Calf  -4.28353 -7.43535 36.1555
L_Foot  3.21185 11.6214 1.23225
L_Toe0  0.504986 0.0344452 -6.136
R_Thigh  8.46455 -4.82011 -15.0919
R_Calf  7.71963 15.3713 41.3048
R_Foot  0.622805 2.50094 1.121
R_Toe0  -1.78853 -0.272788 -17.3235
